<svg width="25" height="30" viewBox="0 0 25 30" fill="none" xmlns="http://www.w3.org/2000/svg">
<path d="M23.6416 10.1002C23.4677 10.2335 20.3958 11.943 20.3958 15.7443C20.3958 20.1411 24.3046 21.6965 24.4216 21.735C24.4036 21.8298 23.8006 23.8653 22.3607 25.9392C21.0768 27.7643 19.7359 29.5864 17.696 29.5864C15.6561 29.5864 15.1311 28.4161 12.7763 28.4161C10.4814 28.4161 9.66545 29.6249 7.79955 29.6249C5.93366 29.6249 4.63174 27.9362 3.13482 25.8622C1.40092 23.4268 0 19.6433 0 16.0524C0 10.2927 3.79178 7.2381 7.52357 7.2381C9.50646 7.2381 11.1594 8.52395 12.4043 8.52395C13.5892 8.52395 15.4371 7.16107 17.693 7.16107C18.5479 7.16107 21.6198 7.2381 23.6416 10.1002ZM16.622 4.72269C17.555 3.62942 18.215 2.11247 18.215 0.595521C18.215 0.385163 18.197 0.171842 18.158 0C16.64 0.056293 14.8342 0.998461 13.7452 2.2458C12.8903 3.20574 12.0923 4.72269 12.0923 6.26038C12.0923 6.49147 12.1313 6.72257 12.1493 6.79664C12.2453 6.81442 12.4013 6.83516 12.5573 6.83516C13.9192 6.83516 15.6321 5.93447 16.622 4.72269Z" fill="white"/>
</svg>
