<svg width="30" height="33" viewBox="0 0 30 33" fill="none" xmlns="http://www.w3.org/2000/svg">
<path d="M21.8593 21.0838C25.6088 18.9881 28.476 17.3915 28.721 17.2667C29.5052 16.8426 30.3139 15.72 28.721 14.8468C28.2064 14.5724 25.4372 13.0256 21.8593 11.0298L16.9336 16.0692L21.8593 21.0838Z" fill="#FFDD33"/>
<path d="M16.9341 16.0693L1.20117 32.2106C1.56876 32.2605 1.98537 32.1607 2.47549 31.8862C3.50475 31.3124 14.4345 25.2252 21.8598 21.0838L16.9341 16.0693Z" fill="#FF6666"/>
<path d="M16.9342 16.0691L21.8599 11.0297C21.8599 11.0297 3.57836 0.875913 2.47558 0.277166C2.05898 0.0276882 1.59336 -0.0471552 1.17676 0.0276882L16.9342 16.0691Z" fill="#7BFF7B"/>
<path d="M16.9337 16.0693L1.17629 0.027832C0.539135 0.177519 0 0.75132 0 1.92387C0 3.79495 0 28.7428 0 30.3145C0 31.3872 0.416605 32.1606 1.2008 32.2354L16.9337 16.0693Z" fill="#6ED8FF"/>
</svg>
